<svg viewBox="0 0 330 200" xmlns="http://www.w3.org/2000/svg"><g><g><g><g><g><line x1="51.53200149536133" y1="176.89999961853027" x2="46.53200149536133" y2="176.89999961853027" style="visibility: inherit;" fill="rgb(0, 0, 0)" stroke="rgb(204, 204, 204)" stroke-width="1px"></line><line x1="51.53200149536133" y1="160.81818147139114" x2="46.53200149536133" y2="160.81818147139114" style="visibility: inherit;" fill="rgb(0, 0, 0)" stroke="rgb(204, 204, 204)" stroke-width="1px"></line><line x1="51.53200149536133" y1="144.73636332425204" x2="46.53200149536133" y2="144.73636332425204" style="visibility: inherit;" fill="rgb(0, 0, 0)" stroke="rgb(204, 204, 204)" stroke-width="1px"></line><line x1="51.53200149536133" y1="128.65454517711294" x2="46.53200149536133" y2="128.65454517711294" style="visibility: inherit;" fill="rgb(0, 0, 0)" stroke="rgb(204, 204, 204)" stroke-width="1px"></line><line x1="51.53200149536133" y1="112.5727270299738" x2="46.53200149536133" y2="112.5727270299738" style="visibility: inherit;" fill="rgb(0, 0, 0)" stroke="rgb(204, 204, 204)" stroke-width="1px"></line><line x1="51.53200149536133" y1="96.49090888283469" x2="46.53200149536133" y2="96.49090888283469" style="visibility: inherit;" fill="rgb(0, 0, 0)" stroke="rgb(204, 204, 204)" stroke-width="1px"></line><line x1="51.53200149536133" y1="80.40909073569559" x2="46.53200149536133" y2="80.40909073569559" style="visibility: inherit;" fill="rgb(0, 0, 0)" stroke="rgb(204, 204, 204)" stroke-width="1px"></line><line x1="51.53200149536133" y1="64.32727258855648" x2="46.53200149536133" y2="64.32727258855648" style="visibility: inherit;" fill="rgb(0, 0, 0)" stroke="rgb(204, 204, 204)" stroke-width="1px"></line><line x1="51.53200149536133" y1="48.245454441417365" x2="46.53200149536133" y2="48.245454441417365" style="visibility: inherit;" fill="rgb(0, 0, 0)" stroke="rgb(204, 204, 204)" stroke-width="1px"></line><line x1="51.53200149536133" y1="32.16363629427824" x2="46.53200149536133" y2="32.16363629427824" style="visibility: inherit;" fill="rgb(0, 0, 0)" stroke="rgb(204, 204, 204)" stroke-width="1px"></line><line x1="51.53200149536133" y1="16.08181814713912" x2="46.53200149536133" y2="16.08181814713912" style="visibility: inherit;" fill="rgb(0, 0, 0)" stroke="rgb(204, 204, 204)" stroke-width="1px"></line><line x1="51.53200149536133" y1="0" x2="46.53200149536133" y2="0" style="visibility: inherit;" fill="rgb(0, 0, 0)" stroke="rgb(204, 204, 204)" stroke-width="1px"></line></g><g transform="translate(41.53200149536133, 0)"><text style="text-anchor: end; visibility: hidden; font-family: Roboto, sans-serif; font-size: 12px; font-weight: 200;" x="0" y="176.89999961853027" dx="0em" dy="0.3em" fill="rgb(255, 255, 255)" stroke="none" stroke-width="1px">-0.1</text><text style="text-anchor: end; visibility: inherit; font-family: Roboto, sans-serif; font-size: 12px; font-weight: 200;" x="0" y="160.81818147139114" dx="0em" dy="0.3em" fill="rgb(255, 255, 255)" stroke="none" stroke-width="1px">0</text><text style="text-anchor: end; visibility: hidden; font-family: Roboto, sans-serif; font-size: 12px; font-weight: 200;" x="0" y="144.73636332425204" dx="0em" dy="0.3em" fill="rgb(255, 255, 255)" stroke="none" stroke-width="1px">0.1</text><text style="text-anchor: end; visibility: inherit; font-family: Roboto, sans-serif; font-size: 12px; font-weight: 200;" x="0" y="128.65454517711294" dx="0em" dy="0.3em" fill="rgb(255, 255, 255)" stroke="none" stroke-width="1px">0.2</text><text style="text-anchor: end; visibility: hidden; font-family: Roboto, sans-serif; font-size: 12px; font-weight: 200;" x="0" y="112.5727270299738" dx="0em" dy="0.3em" fill="rgb(255, 255, 255)" stroke="none" stroke-width="1px">0.3</text><text style="text-anchor: end; visibility: inherit; font-family: Roboto, sans-serif; font-size: 12px; font-weight: 200;" x="0" y="96.49090888283469" dx="0em" dy="0.3em" fill="rgb(255, 255, 255)" stroke="none" stroke-width="1px">0.4</text><text style="text-anchor: end; visibility: hidden; font-family: Roboto, sans-serif; font-size: 12px; font-weight: 200;" x="0" y="80.40909073569559" dx="0em" dy="0.3em" fill="rgb(255, 255, 255)" stroke="none" stroke-width="1px">0.5</text><text style="text-anchor: end; visibility: inherit; font-family: Roboto, sans-serif; font-size: 12px; font-weight: 200;" x="0" y="64.32727258855648" dx="0em" dy="0.3em" fill="rgb(255, 255, 255)" stroke="none" stroke-width="1px">0.6</text><text style="text-anchor: end; visibility: hidden; font-family: Roboto, sans-serif; font-size: 12px; font-weight: 200;" x="0" y="48.245454441417365" dx="0em" dy="0.3em" fill="rgb(255, 255, 255)" stroke="none" stroke-width="1px">0.7</text><text style="text-anchor: end; visibility: inherit; font-family: Roboto, sans-serif; font-size: 12px; font-weight: 200;" x="0" y="32.16363629427824" dx="0em" dy="0.3em" fill="rgb(255, 255, 255)" stroke="none" stroke-width="1px">0.8</text><text style="text-anchor: end; visibility: hidden; font-family: Roboto, sans-serif; font-size: 12px; font-weight: 200;" x="0" y="16.08181814713912" dx="0em" dy="0.3em" fill="rgb(255, 255, 255)" stroke="none" stroke-width="1px">0.9</text><text style="text-anchor: end; visibility: hidden; font-family: Roboto, sans-serif; font-size: 12px; font-weight: 200;" x="0" y="0" dx="0em" dy="0.3em" fill="rgb(255, 255, 255)" stroke="none" stroke-width="1px">1</text></g><line x1="51.53200149536133" y1="0" x2="51.53200149536133" y2="176.89999961853027" fill="rgb(0, 0, 0)" stroke="rgb(204, 204, 204)" stroke-width="1px"></line></g></g><g transform="translate(51, 0)" clip-path="url(#clip_0)"><clipPath id="clip_0"><rect width="278" height="176"></rect></clipPath><g><g><g><line x1="0" y1="0" x2="0" y2="176.89999961853027" fill="rgb(0, 0, 0)" stroke="rgb(189, 189, 189)" stroke-width="1px" opacity="0.25"></line><line x1="23.205666542053223" y1="0" x2="23.205666542053223" y2="176.89999961853027" fill="rgb(0, 0, 0)" stroke="rgb(189, 189, 189)" stroke-width="1px" opacity="0.25"></line><line x1="46.411333084106445" y1="0" x2="46.411333084106445" y2="176.89999961853027" fill="rgb(0, 0, 0)" stroke="rgb(189, 189, 189)" stroke-width="1px" opacity="0.25"></line><line x1="69.61699962615967" y1="0" x2="69.61699962615967" y2="176.89999961853027" fill="rgb(0, 0, 0)" stroke="rgb(189, 189, 189)" stroke-width="1px" opacity="0.25"></line><line x1="92.82266616821289" y1="0" x2="92.82266616821289" y2="176.89999961853027" fill="rgb(0, 0, 0)" stroke="rgb(189, 189, 189)" stroke-width="1px" opacity="0.25"></line><line x1="116.02833271026611" y1="0" x2="116.02833271026611" y2="176.89999961853027" fill="rgb(0, 0, 0)" stroke="rgb(189, 189, 189)" stroke-width="1px" opacity="0.25"></line><line x1="139.23399925231934" y1="0" x2="139.23399925231934" y2="176.89999961853027" fill="rgb(0, 0, 0)" stroke="rgb(189, 189, 189)" stroke-width="1px" opacity="0.25"></line><line x1="162.43966579437256" y1="0" x2="162.43966579437256" y2="176.89999961853027" fill="rgb(0, 0, 0)" stroke="rgb(189, 189, 189)" stroke-width="1px" opacity="0.25"></line><line x1="185.64533233642578" y1="0" x2="185.64533233642578" y2="176.89999961853027" fill="rgb(0, 0, 0)" stroke="rgb(189, 189, 189)" stroke-width="1px" opacity="0.25"></line><line x1="208.850998878479" y1="0" x2="208.850998878479" y2="176.89999961853027" fill="rgb(0, 0, 0)" stroke="rgb(189, 189, 189)" stroke-width="1px" opacity="0.25"></line><line x1="232.05666542053223" y1="0" x2="232.05666542053223" y2="176.89999961853027" fill="rgb(0, 0, 0)" stroke="rgb(189, 189, 189)" stroke-width="1px" opacity="0.25"></line><line x1="255.26233196258545" y1="0" x2="255.26233196258545" y2="176.89999961853027" fill="rgb(0, 0, 0)" stroke="rgb(189, 189, 189)" stroke-width="1px" opacity="0.25"></line><line x1="278.4679985046387" y1="0" x2="278.4679985046387" y2="176.89999961853027" fill="rgb(0, 0, 0)" stroke="rgb(189, 189, 189)" stroke-width="1px" opacity="0.25"></line></g><g><line x1="0" y1="176.89999961853027" x2="278.4679985046387" y2="176.89999961853027" fill="rgb(0, 0, 0)" stroke="rgb(189, 189, 189)" stroke-width="1px" opacity="0.25"></line><line x1="0" y1="160.81818147139114" x2="278.4679985046387" y2="160.81818147139114" fill="rgb(0, 0, 0)" stroke="rgb(189, 189, 189)" stroke-width="1px" opacity="0.25"></line><line x1="0" y1="144.73636332425204" x2="278.4679985046387" y2="144.73636332425204" fill="rgb(0, 0, 0)" stroke="rgb(189, 189, 189)" stroke-width="1px" opacity="0.25"></line><line x1="0" y1="128.65454517711294" x2="278.4679985046387" y2="128.65454517711294" fill="rgb(0, 0, 0)" stroke="rgb(189, 189, 189)" stroke-width="1px" opacity="0.25"></line><line x1="0" y1="112.5727270299738" x2="278.4679985046387" y2="112.5727270299738" fill="rgb(0, 0, 0)" stroke="rgb(189, 189, 189)" stroke-width="1px" opacity="0.25"></line><line x1="0" y1="96.49090888283469" x2="278.4679985046387" y2="96.49090888283469" fill="rgb(0, 0, 0)" stroke="rgb(189, 189, 189)" stroke-width="1px" opacity="0.25"></line><line x1="0" y1="80.40909073569559" x2="278.4679985046387" y2="80.40909073569559" fill="rgb(0, 0, 0)" stroke="rgb(189, 189, 189)" stroke-width="1px" opacity="0.25"></line><line x1="0" y1="64.32727258855648" x2="278.4679985046387" y2="64.32727258855648" fill="rgb(0, 0, 0)" stroke="rgb(189, 189, 189)" stroke-width="1px" opacity="0.25"></line><line x1="0" y1="48.245454441417365" x2="278.4679985046387" y2="48.245454441417365" fill="rgb(0, 0, 0)" stroke="rgb(189, 189, 189)" stroke-width="1px" opacity="0.25"></line><line x1="0" y1="32.16363629427824" x2="278.4679985046387" y2="32.16363629427824" fill="rgb(0, 0, 0)" stroke="rgb(189, 189, 189)" stroke-width="1px" opacity="0.25"></line><line x1="0" y1="16.08181814713912" x2="278.4679985046387" y2="16.08181814713912" fill="rgb(0, 0, 0)" stroke="rgb(189, 189, 189)" stroke-width="1px" opacity="0.25"></line><line x1="0" y1="0" x2="278.4679985046387" y2="0" fill="rgb(0, 0, 0)" stroke="rgb(189, 189, 189)" stroke-width="1px" opacity="0.25"></line></g></g></g><g><g><line x1="0" y1="160.81818147139114" x2="278.4679985046387" y2="160.81818147139114" fill="rgb(0, 0, 0)" stroke="rgb(153, 153, 153)" stroke-width="1.5px"></line></g></g><g><g><line x1="23.205666542053223" y1="0" x2="23.205666542053223" y2="176.89999961853027" fill="rgb(0, 0, 0)" stroke="rgb(153, 153, 153)" stroke-width="1.5px"></line></g></g><g><g><g><g><g><path style="fill: none;" stroke="rgb(0, 119, 187)" stroke-width="2px" d="M23.205666542053223,-7.831304630818215L27.846799850463867,15.485443864152302L32.48793315887451,30.86376519715719L37.129066467285156,37.68312787376015L41.7701997756958,57.52554500563999L46.411333084106445,89.42707858342301L51.05246639251708,113.54301932670603L55.693599700927734,129.71764378350298L60.33473300933838,140.38567250937794L64.97586631774902,147.4551461647935L69.61699962615967,151.50547403475704L74.25813293457031,154.72013301475508L78.89926624298096,156.38481950086904L83.5403995513916,157.93947365427547L88.18153285980225,158.64779475845907L92.82266616821289,159.08700912262583L97.46379947662354,159.64183452392658L102.10493278503417,159.81158173383992L106.74606609344484,159.72922799742938L111.38719940185547,160.0614873120447L116.02833271026611,160.30588341212427L120.66946601867676,160.4342406661162L125.3105993270874,159.7905073468931L129.95173263549805,160.1704704135371L134.5928659439087,160.22604058624313L139.23399925231934,160.12005189245335L143.87513256073,160.36560800005608L148.51626586914062,160.19909411122717L153.15739917755127,160.20688605889518L157.7985324859619,159.99768676509575L162.43966579437256,160.26484301339767L167.0807991027832,159.96496180164095L171.72193241119385,160.0900501618461L176.3630657196045,160.20006297005992L181.00419902801514,160.44168368050362L185.64533233642578,160.50703352749292L190.28646564483643,160.56064087972408L194.92759895324707,160.55976837170425L199.56873226165771,159.38355038191594L204.20986557006833,159.8952524009658L208.850998878479,160.2340094626967L213.49213218688968,160.443877099026L218.1332654953003,160.558904159859L222.77439880371094,160.61339874845066L227.41553211212158,160.62010011736714L232.05666542053223,160.6807287780336L236.69779872894287,159.78462093759865L241.33893203735352,159.7502311849393L245.98006534576416,158.5192812822954L250.6211986541748,159.29628835549602" fill="none"></path></g><g><path style="fill: none;" stroke="rgb(255, 112, 67)" stroke-width="2px" d="M32.48793315887451,-26.087487008585637L37.129066467285156,16.916167270648877L41.7701997756958,45.93039133588604L46.411333084106445,67.63421375110416L51.05246639251708,87.25332640824506L55.693599700927734,104.18941984512398L60.33473300933838,117.23856427902213L64.97586631774902,127.09129201384938L69.61699962615967,134.0154813202335L74.25813293457031,138.8975276572265L78.89926624298096,142.31627407836842L83.5403995513916,144.6792936682383L88.18153285980225,146.72934916769483L92.82266616821289,147.27024714318014L97.46379947662354,148.27612443474038L102.10493278503417,148.8117399839411L106.74606609344484,149.86907040511107L111.38719940185547,150.7987186729965L116.02833271026611,151.4345265885617L120.66946601867676,151.81660462889243L125.3105993270874,152.01034082654184L129.95173263549805,151.8690277410437L134.5928659439087,151.99134520904644L139.23399925231934,152.4991827007702L143.87513256073,152.7012035884086L148.51626586914062,153.10795462519732L153.15739917755127,152.61039399015317L157.7985324859619,153.09052391012955L162.43966579437256,152.90477292908034L167.0807991027832,152.67722240319662L171.72193241119385,152.05511335494845L176.3630657196045,152.92497247854266L181.00419902801514,153.51753578695343L185.64533233642578,153.61498269226243L190.28646564483643,154.03690512099223L194.92759895324707,154.34543023718115L199.56873226165771,153.8241832786391L204.20986557006833,152.26473520923057L208.850998878479,153.2130639670968L213.49213218688968,153.66693756174385L218.1332654953003,154.26159488094873L222.77439880371094,154.67902457628614L227.41553211212158,154.810158602801L232.05666542053223,155.07614085399766L236.69779872894287,154.49991621819638L241.33893203735352,154.60484349774615L245.98006534576416,153.9401318855122L250.6211986541748,153.8136247206408" fill="none"></path></g></g></g></g><g opacity="0.2"><g><g><g><path style="fill: none;" stroke="rgb(0, 119, 187)" stroke-width="2px" d="M23.205666542053223,-7.831304630818215L27.846799850463867,29.47549296113463L32.48793315887451,45.62695367684187L37.129066467285156,45.702698381445245L41.7701997756958,83.43180481302232L46.411333084106445,133.558384073585L51.05246639251708,148.02920044465264L55.693599700927734,153.30040151790766L60.33473300933838,156.11894272214383L64.97586631774902,157.95249063834788L69.61699962615967,157.5442296640259L74.25813293457031,159.52462745254238L78.89926624298096,158.876413739833L83.5403995513916,160.26840915505542L88.18153285980225,159.70944380986583L92.82266616821289,159.74552090087738L97.46379947662354,160.4738378423622L102.10493278503417,160.06615944991174L106.74606609344484,159.60570993857638L111.38719940185547,160.55984591415023L116.02833271026611,160.6724641589807L120.66946601867676,160.626772323454L125.3105993270874,158.8249200774499L129.95173263549805,160.74041051247832L134.5928659439087,160.3093954503332L139.23399925231934,159.96106930376203L143.87513256073,160.73394153314945L148.51626586914062,159.94932353362185L153.15739917755127,160.21857397321966L157.7985324859619,159.68388794001788L162.43966579437256,160.6655772972587L167.0807991027832,159.5151400436722L171.72193241119385,160.2776826872208L176.3630657196045,160.36508217450066L181.00419902801514,160.80411473578508L185.64533233642578,160.60505829629176L190.28646564483643,160.6410519072415L194.92759895324707,160.5584596096826L199.56873226165771,157.61922340378476L204.20986557006833,160.66280542783056L208.850998878479,160.74214505461376L213.49213218688968,160.75867855326743L218.1332654953003,160.73144475102546L222.77439880371094,160.69514063131456L227.41553211212158,160.63015217074016L232.05666542053223,160.77167176902375L236.69779872894287,158.44045917703008L241.33893203735352,159.69864655595222L245.98006534576416,156.67285642837095L250.6211986541748,160.4617989652813" fill="none"></path></g><g><path style="fill: none;" stroke="rgb(255, 112, 67)" stroke-width="2px" d="M27.846799850463867,-25.264702774966494L32.48793315887451,38.481914090490065L37.129066467285156,67.48846470302863L41.7701997756958,83.81136227545964L46.411333084106445,97.6584135274203L51.05246639251708,115.30897141375907L55.693599700927734,128.8824066625905L60.33473300933838,136.48351765320706L64.97586631774902,141.72144442376674L69.61699962615967,144.33896339242108L74.25813293457031,146.19402928214126L78.89926624298096,147.43323090985007L83.5403995513916,148.2191936516705L88.18153285980225,149.8020226535962L92.82266616821289,148.08121262324866L97.46379947662354,149.7845147185218L102.10493278503417,149.61502731501224L106.74606609344484,151.45490496321838L111.38719940185547,152.19310610129062L116.02833271026611,152.38820359269238L120.66946601867676,152.38970911694787L125.3105993270874,152.3009412980327L129.95173263549805,151.65705978678466L134.5928659439087,152.17482054167039L139.23399925231934,153.26093677266087L143.87513256073,153.00423440295012L148.51626586914062,153.71808055592174L153.15739917755127,151.86405349591067L157.7985324859619,153.81071852473357L162.43966579437256,152.62614651910363L167.0807991027832,152.33589665964598L171.72193241119385,151.12194985684351L176.3630657196045,154.22976110162767L181.00419902801514,154.4063807241032L185.64533233642578,153.7611530477131L190.28646564483643,154.6697887575591L194.92759895324707,154.80821790860054L199.56873226165771,153.0423128437293L204.20986557006833,149.92556311032925L208.850998878479,154.63555710199458L213.49213218688968,154.3477479531684L218.1332654953003,155.15358085932684L222.77439880371094,155.30516911911144L227.41553211212158,155.00685964253927L232.05666542053223,155.4751142307512L236.69779872894287,153.63557926454828L241.33893203735352,154.76223441706492L245.98006534576416,152.9430644671837L250.6211986541748,153.62386397333626" fill="none"></path></g></g></g></g></g></g><g transform="translate(51, 176)" clip-path="url(#clip_1)"><clipPath id="clip_1"><rect width="278" height="23"></rect></clipPath><g><g><line x1="0" y1="0" x2="0" y2="5" style="visibility: inherit;" fill="rgb(0, 0, 0)" stroke="rgb(204, 204, 204)" stroke-width="1px"></line><line x1="23.205666542053223" y1="0" x2="23.205666542053223" y2="5" style="visibility: inherit;" fill="rgb(0, 0, 0)" stroke="rgb(204, 204, 204)" stroke-width="1px"></line><line x1="46.411333084106445" y1="0" x2="46.411333084106445" y2="5" style="visibility: inherit;" fill="rgb(0, 0, 0)" stroke="rgb(204, 204, 204)" stroke-width="1px"></line><line x1="69.61699962615967" y1="0" x2="69.61699962615967" y2="5" style="visibility: inherit;" fill="rgb(0, 0, 0)" stroke="rgb(204, 204, 204)" stroke-width="1px"></line><line x1="92.82266616821289" y1="0" x2="92.82266616821289" y2="5" style="visibility: inherit;" fill="rgb(0, 0, 0)" stroke="rgb(204, 204, 204)" stroke-width="1px"></line><line x1="116.02833271026611" y1="0" x2="116.02833271026611" y2="5" style="visibility: inherit;" fill="rgb(0, 0, 0)" stroke="rgb(204, 204, 204)" stroke-width="1px"></line><line x1="139.23399925231934" y1="0" x2="139.23399925231934" y2="5" style="visibility: inherit;" fill="rgb(0, 0, 0)" stroke="rgb(204, 204, 204)" stroke-width="1px"></line><line x1="162.43966579437256" y1="0" x2="162.43966579437256" y2="5" style="visibility: inherit;" fill="rgb(0, 0, 0)" stroke="rgb(204, 204, 204)" stroke-width="1px"></line><line x1="185.64533233642578" y1="0" x2="185.64533233642578" y2="5" style="visibility: inherit;" fill="rgb(0, 0, 0)" stroke="rgb(204, 204, 204)" stroke-width="1px"></line><line x1="208.850998878479" y1="0" x2="208.850998878479" y2="5" style="visibility: inherit;" fill="rgb(0, 0, 0)" stroke="rgb(204, 204, 204)" stroke-width="1px"></line><line x1="232.05666542053223" y1="0" x2="232.05666542053223" y2="5" style="visibility: inherit;" fill="rgb(0, 0, 0)" stroke="rgb(204, 204, 204)" stroke-width="1px"></line><line x1="255.26233196258545" y1="0" x2="255.26233196258545" y2="5" style="visibility: inherit;" fill="rgb(0, 0, 0)" stroke="rgb(204, 204, 204)" stroke-width="1px"></line><line x1="278.4679985046387" y1="0" x2="278.4679985046387" y2="5" style="visibility: inherit;" fill="rgb(0, 0, 0)" stroke="rgb(204, 204, 204)" stroke-width="1px"></line></g><g transform="translate(0, 8)"><text style="text-anchor: middle; visibility: hidden; font-family: Roboto, sans-serif; font-size: 12px; font-weight: 200;" x="0" y="0" dx="0em" dy="0.95em" fill="rgb(255, 255, 255)" stroke="none" stroke-width="1px">-5</text><text style="text-anchor: middle; visibility: inherit; font-family: Roboto, sans-serif; font-size: 12px; font-weight: 200;" x="23.205666542053223" y="0" dx="0em" dy="0.95em" fill="rgb(255, 255, 255)" stroke="none" stroke-width="1px">0</text><text style="text-anchor: middle; visibility: inherit; font-family: Roboto, sans-serif; font-size: 12px; font-weight: 200;" x="46.411333084106445" y="0" dx="0em" dy="0.95em" fill="rgb(255, 255, 255)" stroke="none" stroke-width="1px">5</text><text style="text-anchor: middle; visibility: inherit; font-family: Roboto, sans-serif; font-size: 12px; font-weight: 200;" x="69.61699962615967" y="0" dx="0em" dy="0.95em" fill="rgb(255, 255, 255)" stroke="none" stroke-width="1px">10</text><text style="text-anchor: middle; visibility: inherit; font-family: Roboto, sans-serif; font-size: 12px; font-weight: 200;" x="92.82266616821289" y="0" dx="0em" dy="0.95em" fill="rgb(255, 255, 255)" stroke="none" stroke-width="1px">15</text><text style="text-anchor: middle; visibility: inherit; font-family: Roboto, sans-serif; font-size: 12px; font-weight: 200;" x="116.02833271026611" y="0" dx="0em" dy="0.95em" fill="rgb(255, 255, 255)" stroke="none" stroke-width="1px">20</text><text style="text-anchor: middle; visibility: inherit; font-family: Roboto, sans-serif; font-size: 12px; font-weight: 200;" x="139.23399925231934" y="0" dx="0em" dy="0.95em" fill="rgb(255, 255, 255)" stroke="none" stroke-width="1px">25</text><text style="text-anchor: middle; visibility: inherit; font-family: Roboto, sans-serif; font-size: 12px; font-weight: 200;" x="162.43966579437256" y="0" dx="0em" dy="0.95em" fill="rgb(255, 255, 255)" stroke="none" stroke-width="1px">30</text><text style="text-anchor: middle; visibility: inherit; font-family: Roboto, sans-serif; font-size: 12px; font-weight: 200;" x="185.64533233642578" y="0" dx="0em" dy="0.95em" fill="rgb(255, 255, 255)" stroke="none" stroke-width="1px">35</text><text style="text-anchor: middle; visibility: inherit; font-family: Roboto, sans-serif; font-size: 12px; font-weight: 200;" x="208.850998878479" y="0" dx="0em" dy="0.95em" fill="rgb(255, 255, 255)" stroke="none" stroke-width="1px">40</text><text style="text-anchor: middle; visibility: inherit; font-family: Roboto, sans-serif; font-size: 12px; font-weight: 200;" x="232.05666542053223" y="0" dx="0em" dy="0.95em" fill="rgb(255, 255, 255)" stroke="none" stroke-width="1px">45</text><text style="text-anchor: middle; visibility: inherit; font-family: Roboto, sans-serif; font-size: 12px; font-weight: 200;" x="255.26233196258545" y="0" dx="0em" dy="0.95em" fill="rgb(255, 255, 255)" stroke="none" stroke-width="1px">50</text><text style="text-anchor: middle; visibility: hidden; font-family: Roboto, sans-serif; font-size: 12px; font-weight: 200;" x="278.4679985046387" y="0" dx="0em" dy="0.95em" fill="rgb(255, 255, 255)" stroke="none" stroke-width="1px">55</text></g><line x1="0" y1="0" x2="278.4679985046387" y2="0" fill="rgb(0, 0, 0)" stroke="rgb(204, 204, 204)" stroke-width="1px"></line></g></g></g></g></svg>