<svg viewBox="0 0 330 200" xmlns="http://www.w3.org/2000/svg"><g><g><g><g><g><line x1="30.766000747680664" y1="176.89999961853027" x2="25.766000747680664" y2="176.89999961853027" style="visibility: inherit;" fill="rgb(0, 0, 0)" stroke="rgb(204, 204, 204)" stroke-width="1px"></line><line x1="30.766000747680664" y1="163.2923073401818" x2="25.766000747680664" y2="163.2923073401818" style="visibility: inherit;" fill="rgb(0, 0, 0)" stroke="rgb(204, 204, 204)" stroke-width="1px"></line><line x1="30.766000747680664" y1="149.6846150618333" x2="25.766000747680664" y2="149.6846150618333" style="visibility: inherit;" fill="rgb(0, 0, 0)" stroke="rgb(204, 204, 204)" stroke-width="1px"></line><line x1="30.766000747680664" y1="136.0769227834848" x2="25.766000747680664" y2="136.0769227834848" style="visibility: inherit;" fill="rgb(0, 0, 0)" stroke="rgb(204, 204, 204)" stroke-width="1px"></line><line x1="30.766000747680664" y1="122.46923050513634" x2="25.766000747680664" y2="122.46923050513634" style="visibility: inherit;" fill="rgb(0, 0, 0)" stroke="rgb(204, 204, 204)" stroke-width="1px"></line><line x1="30.766000747680664" y1="108.86153822678787" x2="25.766000747680664" y2="108.86153822678787" style="visibility: inherit;" fill="rgb(0, 0, 0)" stroke="rgb(204, 204, 204)" stroke-width="1px"></line><line x1="30.766000747680664" y1="95.25384594843938" x2="25.766000747680664" y2="95.25384594843938" style="visibility: inherit;" fill="rgb(0, 0, 0)" stroke="rgb(204, 204, 204)" stroke-width="1px"></line><line x1="30.766000747680664" y1="81.6461536700909" x2="25.766000747680664" y2="81.6461536700909" style="visibility: inherit;" fill="rgb(0, 0, 0)" stroke="rgb(204, 204, 204)" stroke-width="1px"></line><line x1="30.766000747680664" y1="68.0384613917424" x2="25.766000747680664" y2="68.0384613917424" style="visibility: inherit;" fill="rgb(0, 0, 0)" stroke="rgb(204, 204, 204)" stroke-width="1px"></line><line x1="30.766000747680664" y1="54.430769113393936" x2="25.766000747680664" y2="54.430769113393936" style="visibility: inherit;" fill="rgb(0, 0, 0)" stroke="rgb(204, 204, 204)" stroke-width="1px"></line><line x1="30.766000747680664" y1="40.82307683504544" x2="25.766000747680664" y2="40.82307683504544" style="visibility: inherit;" fill="rgb(0, 0, 0)" stroke="rgb(204, 204, 204)" stroke-width="1px"></line><line x1="30.766000747680664" y1="27.215384556696968" x2="25.766000747680664" y2="27.215384556696968" style="visibility: inherit;" fill="rgb(0, 0, 0)" stroke="rgb(204, 204, 204)" stroke-width="1px"></line><line x1="30.766000747680664" y1="13.607692278348473" x2="25.766000747680664" y2="13.607692278348473" style="visibility: inherit;" fill="rgb(0, 0, 0)" stroke="rgb(204, 204, 204)" stroke-width="1px"></line><line x1="30.766000747680664" y1="0" x2="25.766000747680664" y2="0" style="visibility: inherit;" fill="rgb(0, 0, 0)" stroke="rgb(204, 204, 204)" stroke-width="1px"></line></g><g transform="translate(20.766000747680664, 0)"><text style="text-anchor: end; visibility: hidden; font-family: Roboto, sans-serif; font-size: 12px; font-weight: 200;" x="0" y="176.89999961853027" dx="0em" dy="0.3em" fill="rgb(255, 255, 255)" stroke="none" stroke-width="1px">-2</text><text style="text-anchor: end; visibility: inherit; font-family: Roboto, sans-serif; font-size: 12px; font-weight: 200;" x="0" y="163.2923073401818" dx="0em" dy="0.3em" fill="rgb(255, 255, 255)" stroke="none" stroke-width="1px">0</text><text style="text-anchor: end; visibility: hidden; font-family: Roboto, sans-serif; font-size: 12px; font-weight: 200;" x="0" y="149.6846150618333" dx="0em" dy="0.3em" fill="rgb(255, 255, 255)" stroke="none" stroke-width="1px">2</text><text style="text-anchor: end; visibility: inherit; font-family: Roboto, sans-serif; font-size: 12px; font-weight: 200;" x="0" y="136.0769227834848" dx="0em" dy="0.3em" fill="rgb(255, 255, 255)" stroke="none" stroke-width="1px">4</text><text style="text-anchor: end; visibility: hidden; font-family: Roboto, sans-serif; font-size: 12px; font-weight: 200;" x="0" y="122.46923050513634" dx="0em" dy="0.3em" fill="rgb(255, 255, 255)" stroke="none" stroke-width="1px">6</text><text style="text-anchor: end; visibility: inherit; font-family: Roboto, sans-serif; font-size: 12px; font-weight: 200;" x="0" y="108.86153822678787" dx="0em" dy="0.3em" fill="rgb(255, 255, 255)" stroke="none" stroke-width="1px">8</text><text style="text-anchor: end; visibility: hidden; font-family: Roboto, sans-serif; font-size: 12px; font-weight: 200;" x="0" y="95.25384594843938" dx="0em" dy="0.3em" fill="rgb(255, 255, 255)" stroke="none" stroke-width="1px">10</text><text style="text-anchor: end; visibility: inherit; font-family: Roboto, sans-serif; font-size: 12px; font-weight: 200;" x="0" y="81.6461536700909" dx="0em" dy="0.3em" fill="rgb(255, 255, 255)" stroke="none" stroke-width="1px">12</text><text style="text-anchor: end; visibility: hidden; font-family: Roboto, sans-serif; font-size: 12px; font-weight: 200;" x="0" y="68.0384613917424" dx="0em" dy="0.3em" fill="rgb(255, 255, 255)" stroke="none" stroke-width="1px">14</text><text style="text-anchor: end; visibility: inherit; font-family: Roboto, sans-serif; font-size: 12px; font-weight: 200;" x="0" y="54.430769113393936" dx="0em" dy="0.3em" fill="rgb(255, 255, 255)" stroke="none" stroke-width="1px">16</text><text style="text-anchor: end; visibility: hidden; font-family: Roboto, sans-serif; font-size: 12px; font-weight: 200;" x="0" y="40.82307683504544" dx="0em" dy="0.3em" fill="rgb(255, 255, 255)" stroke="none" stroke-width="1px">18</text><text style="text-anchor: end; visibility: inherit; font-family: Roboto, sans-serif; font-size: 12px; font-weight: 200;" x="0" y="27.215384556696968" dx="0em" dy="0.3em" fill="rgb(255, 255, 255)" stroke="none" stroke-width="1px">20</text><text style="text-anchor: end; visibility: hidden; font-family: Roboto, sans-serif; font-size: 12px; font-weight: 200;" x="0" y="13.607692278348473" dx="0em" dy="0.3em" fill="rgb(255, 255, 255)" stroke="none" stroke-width="1px">22</text><text style="text-anchor: end; visibility: hidden; font-family: Roboto, sans-serif; font-size: 12px; font-weight: 200;" x="0" y="0" dx="0em" dy="0.3em" fill="rgb(255, 255, 255)" stroke="none" stroke-width="1px">24</text></g><line x1="30.766000747680664" y1="0" x2="30.766000747680664" y2="176.89999961853027" fill="rgb(0, 0, 0)" stroke="rgb(204, 204, 204)" stroke-width="1px"></line></g></g><g transform="translate(30, 0)" clip-path="url(#clip_0)"><clipPath id="clip_0"><rect width="299" height="176"></rect></clipPath><g><g><g><line x1="0" y1="0" x2="0" y2="176.89999961853027" fill="rgb(0, 0, 0)" stroke="rgb(189, 189, 189)" stroke-width="1px" opacity="0.25"></line><line x1="24.936166604359943" y1="0" x2="24.936166604359943" y2="176.89999961853027" fill="rgb(0, 0, 0)" stroke="rgb(189, 189, 189)" stroke-width="1px" opacity="0.25"></line><line x1="49.87233320871989" y1="0" x2="49.87233320871989" y2="176.89999961853027" fill="rgb(0, 0, 0)" stroke="rgb(189, 189, 189)" stroke-width="1px" opacity="0.25"></line><line x1="74.80849981307983" y1="0" x2="74.80849981307983" y2="176.89999961853027" fill="rgb(0, 0, 0)" stroke="rgb(189, 189, 189)" stroke-width="1px" opacity="0.25"></line><line x1="99.74466641743977" y1="0" x2="99.74466641743977" y2="176.89999961853027" fill="rgb(0, 0, 0)" stroke="rgb(189, 189, 189)" stroke-width="1px" opacity="0.25"></line><line x1="124.68083302179973" y1="0" x2="124.68083302179973" y2="176.89999961853027" fill="rgb(0, 0, 0)" stroke="rgb(189, 189, 189)" stroke-width="1px" opacity="0.25"></line><line x1="149.61699962615967" y1="0" x2="149.61699962615967" y2="176.89999961853027" fill="rgb(0, 0, 0)" stroke="rgb(189, 189, 189)" stroke-width="1px" opacity="0.25"></line><line x1="174.55316623051962" y1="0" x2="174.55316623051962" y2="176.89999961853027" fill="rgb(0, 0, 0)" stroke="rgb(189, 189, 189)" stroke-width="1px" opacity="0.25"></line><line x1="199.48933283487955" y1="0" x2="199.48933283487955" y2="176.89999961853027" fill="rgb(0, 0, 0)" stroke="rgb(189, 189, 189)" stroke-width="1px" opacity="0.25"></line><line x1="224.4254994392395" y1="0" x2="224.4254994392395" y2="176.89999961853027" fill="rgb(0, 0, 0)" stroke="rgb(189, 189, 189)" stroke-width="1px" opacity="0.25"></line><line x1="249.36166604359946" y1="0" x2="249.36166604359946" y2="176.89999961853027" fill="rgb(0, 0, 0)" stroke="rgb(189, 189, 189)" stroke-width="1px" opacity="0.25"></line><line x1="274.29783264795935" y1="0" x2="274.29783264795935" y2="176.89999961853027" fill="rgb(0, 0, 0)" stroke="rgb(189, 189, 189)" stroke-width="1px" opacity="0.25"></line><line x1="299.23399925231934" y1="0" x2="299.23399925231934" y2="176.89999961853027" fill="rgb(0, 0, 0)" stroke="rgb(189, 189, 189)" stroke-width="1px" opacity="0.25"></line></g><g><line x1="0" y1="176.89999961853027" x2="299.23399925231934" y2="176.89999961853027" fill="rgb(0, 0, 0)" stroke="rgb(189, 189, 189)" stroke-width="1px" opacity="0.25"></line><line x1="0" y1="163.2923073401818" x2="299.23399925231934" y2="163.2923073401818" fill="rgb(0, 0, 0)" stroke="rgb(189, 189, 189)" stroke-width="1px" opacity="0.25"></line><line x1="0" y1="149.6846150618333" x2="299.23399925231934" y2="149.6846150618333" fill="rgb(0, 0, 0)" stroke="rgb(189, 189, 189)" stroke-width="1px" opacity="0.25"></line><line x1="0" y1="136.0769227834848" x2="299.23399925231934" y2="136.0769227834848" fill="rgb(0, 0, 0)" stroke="rgb(189, 189, 189)" stroke-width="1px" opacity="0.25"></line><line x1="0" y1="122.46923050513634" x2="299.23399925231934" y2="122.46923050513634" fill="rgb(0, 0, 0)" stroke="rgb(189, 189, 189)" stroke-width="1px" opacity="0.25"></line><line x1="0" y1="108.86153822678787" x2="299.23399925231934" y2="108.86153822678787" fill="rgb(0, 0, 0)" stroke="rgb(189, 189, 189)" stroke-width="1px" opacity="0.25"></line><line x1="0" y1="95.25384594843938" x2="299.23399925231934" y2="95.25384594843938" fill="rgb(0, 0, 0)" stroke="rgb(189, 189, 189)" stroke-width="1px" opacity="0.25"></line><line x1="0" y1="81.6461536700909" x2="299.23399925231934" y2="81.6461536700909" fill="rgb(0, 0, 0)" stroke="rgb(189, 189, 189)" stroke-width="1px" opacity="0.25"></line><line x1="0" y1="68.0384613917424" x2="299.23399925231934" y2="68.0384613917424" fill="rgb(0, 0, 0)" stroke="rgb(189, 189, 189)" stroke-width="1px" opacity="0.25"></line><line x1="0" y1="54.430769113393936" x2="299.23399925231934" y2="54.430769113393936" fill="rgb(0, 0, 0)" stroke="rgb(189, 189, 189)" stroke-width="1px" opacity="0.25"></line><line x1="0" y1="40.82307683504544" x2="299.23399925231934" y2="40.82307683504544" fill="rgb(0, 0, 0)" stroke="rgb(189, 189, 189)" stroke-width="1px" opacity="0.25"></line><line x1="0" y1="27.215384556696968" x2="299.23399925231934" y2="27.215384556696968" fill="rgb(0, 0, 0)" stroke="rgb(189, 189, 189)" stroke-width="1px" opacity="0.25"></line><line x1="0" y1="13.607692278348473" x2="299.23399925231934" y2="13.607692278348473" fill="rgb(0, 0, 0)" stroke="rgb(189, 189, 189)" stroke-width="1px" opacity="0.25"></line><line x1="0" y1="0" x2="299.23399925231934" y2="0" fill="rgb(0, 0, 0)" stroke="rgb(189, 189, 189)" stroke-width="1px" opacity="0.25"></line></g></g></g><g><g><line x1="0" y1="163.2923073401818" x2="299.23399925231934" y2="163.2923073401818" fill="rgb(0, 0, 0)" stroke="rgb(153, 153, 153)" stroke-width="1.5px"></line></g></g><g><g><line x1="24.936166604359943" y1="0" x2="24.936166604359943" y2="176.89999961853027" fill="rgb(0, 0, 0)" stroke="rgb(153, 153, 153)" stroke-width="1.5px"></line></g></g><g><g><g><g><g><path style="fill: none;" stroke="rgb(0, 119, 187)" stroke-width="2px" d="M24.936166604359943,33.75759521687514L29.923399925231934,54.53896335202508L34.91063324610392,71.84714688186423L39.897866566975914,84.14722338767957L44.8850998878479,98.6278346495441L49.87233320871989,112.15498345750777L54.85956652959187,121.60786661931442L59.84679985046387,129.89092031341357L64.83403317133586,136.62549099652816L69.82126649220784,141.96887717705087L74.80849981307983,147.05089967934515L79.79573313395183,149.8534635911352L84.78296645482381,152.66789753215892L89.7701997756958,153.5785614094541L94.75743309656778,155.03376613923575L99.74466641743977,156.0696549960282L104.73189973831177,155.44267623229538L109.71913305918375,155.36846047920457L114.70636638005575,155.9922209177124L119.69359970092773,156.18932139048914L124.68083302179973,156.29509099696955L129.66806634267172,156.2029750052226L134.6552996635437,157.0219517374072L139.64253298441568,156.08650542894975L144.6297663052877,156.40586111311725L149.61699962615967,156.95789005008865L154.60423294703168,157.01411529182485L159.59146626790366,157.68542132431008L164.57869958877563,155.86861400080326L169.56593290964761,157.1612145086823L174.55316623051962,156.03568963578192L179.5403995513916,156.54243883080287L184.5276328722636,155.38396493633172L189.51486619313556,156.306598633944L194.50209951400757,155.90694568449814L199.48933283487955,156.57407673349448L204.47656615575156,157.1257434276648L209.46379947662354,157.52473414713776L214.45103279749551,157.50139635366529L219.4382661183675,157.76485254917404L224.4254994392395,157.82953994549598L229.4127327601115,157.66042981409092L234.3999660809835,157.75052159632534L239.38719940185547,157.93956255384447L244.37443272272745,157.74712141954788L249.36166604359946,157.14652284082345L254.34889936447144,157.67615160005352L259.33613268534344,155.03509548159727L264.3233660062154,155.39239960108537L269.3105993270874,155.64383130991013" fill="none"></path></g><g><path style="fill: none;" stroke="rgb(255, 112, 67)" stroke-width="2px" d="M44.8850998878479,-10.07738871281613L49.87233320871989,12.0573615528471L54.85956652959187,30.13279490729551L59.84679985046387,46.39794732107505L64.83403317133586,62.35788358744055L69.82126649220784,76.54883258363513L74.80849981307983,88.28173746671955L79.79573313395183,98.54927747346105L84.78296645482381,105.16522439380755L89.7701997756958,111.20699316120474L94.75743309656778,115.89906368449363L99.74466641743977,119.7853657269999L104.73189973831177,121.46078034030113L109.71913305918375,123.57330325730571L114.70636638005575,126.27489053719376L119.69359970092773,128.1639895755304L124.68083302179973,130.16631293180052L129.66806634267172,131.23142570210513L134.6552996635437,132.09162463426512L139.64253298441568,133.24026695007626L144.6297663052877,133.52454405858933L149.61699962615967,134.43166145988388L154.60423294703168,135.18699274368117L159.59146626790366,135.6198691933927L164.57869958877563,136.11904705235835L169.56593290964761,136.64625806457724L174.55316623051962,137.47101282828746L179.5403995513916,136.3907299748472L184.5276328722636,134.82500629727141L189.51486619313556,136.36217568211163L194.50209951400757,137.62019437336718L199.48933283487955,138.44560796287084L204.47656615575156,138.7149335297144L209.46379947662354,139.49407282419762L214.45103279749551,139.622097958011L219.4382661183675,138.65912515997857L224.4254994392395,139.1048305112881L229.4127327601115,139.2829380577766L234.3999660809835,140.05274959280305L239.38719940185547,140.9039712854547L244.37443272272745,141.22568463892236L249.36166604359946,141.85405002813167L254.34889936447144,141.51774110593888L259.33613268534344,142.4553704124142L264.3233660062154,142.69036314271526L269.3105993270874,143.1174149555112" fill="none"></path></g></g></g></g><g opacity="0.2"><g><g><g><path style="fill: none;" stroke="rgb(0, 119, 187)" stroke-width="2px" d="M24.936166604359943,33.75759521687514L29.923399925231934,67.00778423311505L34.91063324610392,88.46300307050983L39.897866566975914,98.6121133585184L44.8850998878479,117.5337207130344L49.87233320871989,130.86790003249243L54.85956652959187,135.12564078682848L59.84679985046387,141.96769211672563L64.83403317133586,146.5576746311127L69.82126649220784,149.90318291552802L74.80849981307983,154.62783986272763L79.79573313395183,154.0420580297736L84.78296645482381,156.8803588285615L89.7701997756958,154.94277314005893L94.75743309656778,157.21486269537465L99.74466641743977,157.62275769213767L104.73189973831177,154.50247340309645L109.71913305918375,155.25715569294007L114.70636638005575,156.9277665518494L119.69359970092773,156.48495408389041L124.68083302179973,156.4537396060335L129.66806634267172,156.0648040487182L134.6552996635437,158.25040066641716L139.64253298441568,154.68334704751686L144.6297663052877,156.88489236952503L149.61699962615967,157.78593110139448L154.60423294703168,157.09845301056416L159.59146626790366,158.69237934242508L164.57869958877563,153.14340468907932L169.56593290964761,159.10011455610018L174.55316623051962,154.3474026996676L179.5403995513916,157.30256252250814L184.5276328722636,153.64625423292358L189.51486619313556,157.69054911427602L194.50209951400757,155.3074662775051L199.48933283487955,157.57477328978632L204.47656615575156,157.95324346038507L209.46379947662354,158.12322022264343L214.45103279749551,157.4663896635865L219.4382661183675,158.16003684155675L224.4254994392395,157.92657103984916L229.4127327601115,157.40676461718678L234.3999660809835,157.88565926961195L239.38719940185547,158.22312399004124L244.37443272272745,157.45845971815305L249.36166604359946,156.24562497283043L254.34889936447144,158.47059473884912L259.33613268534344,151.0735113040611L264.3233660062154,155.92835578030545L269.3105993270874,156.0209788731422" fill="none"></path></g><g><path style="fill: none;" stroke="rgb(255, 112, 67)" stroke-width="2px" d="M34.91063324610392,-34.19158230524312L39.897866566975914,5.6509551953454595L44.8850998878479,26.384694181913094L49.87233320871989,42.67768968035504L54.85956652959187,55.98095381109033L59.84679985046387,70.11269568582884L64.83403317133586,85.89568952230925L69.82126649220784,97.62073797302429L74.80849981307983,105.77467820759837L79.79573313395183,113.8947119842712L84.78296645482381,115.06754255973915L89.7701997756958,120.25780985832252L94.75743309656778,122.93165411666041L99.74466641743977,125.61207786946044L104.73189973831177,123.97319328093828L109.71913305918375,126.74155126347281L114.70636638005575,130.3268598973952L119.69359970092773,130.99746546190053L124.68083302179973,133.16968815403413L129.66806634267172,132.8290598095726L134.6552996635437,133.38190604937776L139.64253298441568,134.9632168170296L144.6297663052877,133.9509577008389L149.61699962615967,135.79233369338442L154.60423294703168,136.31998773669133L159.59146626790366,136.26918320339263L164.57869958877563,136.86781338099345L169.56593290964761,137.43707429152403L174.55316623051962,138.70814470035515L179.5403995513916,134.7703059096269L184.5276328722636,132.47642096782369L189.51486619313556,138.6679296492677L194.50209951400757,139.50722235618485L199.48933283487955,139.68372832584217L204.47656615575156,139.11892187581282L209.46379947662354,140.66278175868973L214.45103279749551,139.814135658018L219.4382661183675,137.2146659661481L224.4254994392395,139.77338853735864L229.4127327601115,139.5500993772951L234.3999660809835,141.20746689478705L239.38719940185547,142.18080382406347L244.37443272272745,141.70825466904026L249.36166604359946,142.79659811184766L254.34889936447144,141.01327772268115L259.33613268534344,143.86181437207455L264.3233660062154,143.04285223815884L269.3105993270874,143.75799267469654" fill="none"></path></g></g></g></g></g></g><g transform="translate(30, 176)" clip-path="url(#clip_1)"><clipPath id="clip_1"><rect width="299" height="23"></rect></clipPath><g><g><line x1="0" y1="0" x2="0" y2="5" style="visibility: inherit;" fill="rgb(0, 0, 0)" stroke="rgb(204, 204, 204)" stroke-width="1px"></line><line x1="24.936166604359943" y1="0" x2="24.936166604359943" y2="5" style="visibility: inherit;" fill="rgb(0, 0, 0)" stroke="rgb(204, 204, 204)" stroke-width="1px"></line><line x1="49.87233320871989" y1="0" x2="49.87233320871989" y2="5" style="visibility: inherit;" fill="rgb(0, 0, 0)" stroke="rgb(204, 204, 204)" stroke-width="1px"></line><line x1="74.80849981307983" y1="0" x2="74.80849981307983" y2="5" style="visibility: inherit;" fill="rgb(0, 0, 0)" stroke="rgb(204, 204, 204)" stroke-width="1px"></line><line x1="99.74466641743977" y1="0" x2="99.74466641743977" y2="5" style="visibility: inherit;" fill="rgb(0, 0, 0)" stroke="rgb(204, 204, 204)" stroke-width="1px"></line><line x1="124.68083302179973" y1="0" x2="124.68083302179973" y2="5" style="visibility: inherit;" fill="rgb(0, 0, 0)" stroke="rgb(204, 204, 204)" stroke-width="1px"></line><line x1="149.61699962615967" y1="0" x2="149.61699962615967" y2="5" style="visibility: inherit;" fill="rgb(0, 0, 0)" stroke="rgb(204, 204, 204)" stroke-width="1px"></line><line x1="174.55316623051962" y1="0" x2="174.55316623051962" y2="5" style="visibility: inherit;" fill="rgb(0, 0, 0)" stroke="rgb(204, 204, 204)" stroke-width="1px"></line><line x1="199.48933283487955" y1="0" x2="199.48933283487955" y2="5" style="visibility: inherit;" fill="rgb(0, 0, 0)" stroke="rgb(204, 204, 204)" stroke-width="1px"></line><line x1="224.4254994392395" y1="0" x2="224.4254994392395" y2="5" style="visibility: inherit;" fill="rgb(0, 0, 0)" stroke="rgb(204, 204, 204)" stroke-width="1px"></line><line x1="249.36166604359946" y1="0" x2="249.36166604359946" y2="5" style="visibility: inherit;" fill="rgb(0, 0, 0)" stroke="rgb(204, 204, 204)" stroke-width="1px"></line><line x1="274.29783264795935" y1="0" x2="274.29783264795935" y2="5" style="visibility: inherit;" fill="rgb(0, 0, 0)" stroke="rgb(204, 204, 204)" stroke-width="1px"></line><line x1="299.23399925231934" y1="0" x2="299.23399925231934" y2="5" style="visibility: inherit;" fill="rgb(0, 0, 0)" stroke="rgb(204, 204, 204)" stroke-width="1px"></line></g><g transform="translate(0, 8)"><text style="text-anchor: middle; visibility: hidden; font-family: Roboto, sans-serif; font-size: 12px; font-weight: 200;" x="0" y="0" dx="0em" dy="0.95em" fill="rgb(255, 255, 255)" stroke="none" stroke-width="1px">-5</text><text style="text-anchor: middle; visibility: inherit; font-family: Roboto, sans-serif; font-size: 12px; font-weight: 200;" x="24.936166604359943" y="0" dx="0em" dy="0.95em" fill="rgb(255, 255, 255)" stroke="none" stroke-width="1px">0</text><text style="text-anchor: middle; visibility: inherit; font-family: Roboto, sans-serif; font-size: 12px; font-weight: 200;" x="49.87233320871989" y="0" dx="0em" dy="0.95em" fill="rgb(255, 255, 255)" stroke="none" stroke-width="1px">5</text><text style="text-anchor: middle; visibility: inherit; font-family: Roboto, sans-serif; font-size: 12px; font-weight: 200;" x="74.80849981307983" y="0" dx="0em" dy="0.95em" fill="rgb(255, 255, 255)" stroke="none" stroke-width="1px">10</text><text style="text-anchor: middle; visibility: inherit; font-family: Roboto, sans-serif; font-size: 12px; font-weight: 200;" x="99.74466641743977" y="0" dx="0em" dy="0.95em" fill="rgb(255, 255, 255)" stroke="none" stroke-width="1px">15</text><text style="text-anchor: middle; visibility: inherit; font-family: Roboto, sans-serif; font-size: 12px; font-weight: 200;" x="124.68083302179973" y="0" dx="0em" dy="0.95em" fill="rgb(255, 255, 255)" stroke="none" stroke-width="1px">20</text><text style="text-anchor: middle; visibility: inherit; font-family: Roboto, sans-serif; font-size: 12px; font-weight: 200;" x="149.61699962615967" y="0" dx="0em" dy="0.95em" fill="rgb(255, 255, 255)" stroke="none" stroke-width="1px">25</text><text style="text-anchor: middle; visibility: inherit; font-family: Roboto, sans-serif; font-size: 12px; font-weight: 200;" x="174.55316623051962" y="0" dx="0em" dy="0.95em" fill="rgb(255, 255, 255)" stroke="none" stroke-width="1px">30</text><text style="text-anchor: middle; visibility: inherit; font-family: Roboto, sans-serif; font-size: 12px; font-weight: 200;" x="199.48933283487955" y="0" dx="0em" dy="0.95em" fill="rgb(255, 255, 255)" stroke="none" stroke-width="1px">35</text><text style="text-anchor: middle; visibility: inherit; font-family: Roboto, sans-serif; font-size: 12px; font-weight: 200;" x="224.4254994392395" y="0" dx="0em" dy="0.95em" fill="rgb(255, 255, 255)" stroke="none" stroke-width="1px">40</text><text style="text-anchor: middle; visibility: inherit; font-family: Roboto, sans-serif; font-size: 12px; font-weight: 200;" x="249.36166604359946" y="0" dx="0em" dy="0.95em" fill="rgb(255, 255, 255)" stroke="none" stroke-width="1px">45</text><text style="text-anchor: middle; visibility: inherit; font-family: Roboto, sans-serif; font-size: 12px; font-weight: 200;" x="274.29783264795935" y="0" dx="0em" dy="0.95em" fill="rgb(255, 255, 255)" stroke="none" stroke-width="1px">50</text><text style="text-anchor: middle; visibility: hidden; font-family: Roboto, sans-serif; font-size: 12px; font-weight: 200;" x="299.23399925231934" y="0" dx="0em" dy="0.95em" fill="rgb(255, 255, 255)" stroke="none" stroke-width="1px">55</text></g><line x1="0" y1="0" x2="299.23399925231934" y2="0" fill="rgb(0, 0, 0)" stroke="rgb(204, 204, 204)" stroke-width="1px"></line></g></g></g></g></svg>